{"title":"Hunter X Hunter - 133 [Hi10 720p] [ENG SUBBED] [GWC].mp4","uid":10335207,"size":86863003,"categoryP":"video","categoryS":"tv_shows","magnet":"?xt=urn:btih:156b27a923e5d1ae69bf60fe97d9376bd3649522&amp;dn=Hunter+X+Hunter+-+133+%5BHi10+720p%5D+%5BENG+SUBBED%5D+%5BGWC%5D.mp4&amp;tr=udp%3A%2F%2Ftracker.openbittorrent.com%3A80&amp;tr=udp%3A%2F%2Fopen.demonii.com%3A1337&amp;tr=udp%3A%2F%2Ftracker.coppersurfer.tk%3A6969&amp;tr=udp%3A%2F%2Fexodus.desync.com%3A6969","seeders":1,"leechers":0,"uploader":"canc232","files":1,"time":1402462727,"description":"Hunter X Hunter - 133 [Hi10 720p] [ENG SUBBED] [GWC] \n\n\n\nSTORYLINE :\nGon is a youth who lives on Kujira Isle. His dream is to become a Hunter like his father, to search out lost treasures, artefacts, and mythical creatures.\nDetermined to become a professional Hunter willing to stake his life in challenging the unknown, he sets off on a journey and meets fellow Hunter wannabes Killua, Kurapika, and Leorio\n\n\nTHUMBNAIL IMAGE : &lt;a href=&quot;\nhttp://i.imgur.com/RAmKxVO.jpg&quot; rel=&quot;nofollow&quot; target=&quot;_NEW&quot;&gt;\nhttp://i.imgur.com/RAmKxVO.jpg&lt;/a&gt;\n\n\nMEDIA INFO :General \nFormat : MPEG-4 \nFormat profile : Base Media \nFile size : 82.8 MiB \nDuration : 20mn 59s \nOverall bit rate mode : Variable \nOverall bit rate : 552 Kbps \n\nVideo \nFormat : AVC \nFormat profile : High &lt;a class=&quot;__cf_email__&quot; href=&quot;/cdn-cgi/l/email-protection&quot; data-cfemail=&quot;f7c6c7b7bbc3d9c6&quot;&gt;[email&amp;#160;protected]&lt;/a&gt;&lt;script cf-hash='f9e31' type=&quot;text/javascript&quot;&gt;\n/* &lt;![CDATA[ */!function(){try{var t=&quot;currentScript&quot;in document?document.currentScript:function(){for(var t=document.getElementsByTagName(&quot;script&quot;),e=t.length;e--;)if(t[e].getAttribute(&quot;cf-hash&quot;))return t[e]}();if(t&amp;&amp;t.previousSibling){var e,r,n,i,c=t.previousSibling,a=c.getAttribute(&quot;data-cfemail&quot;);if(a){for(e=&quot;&quot;,r=parseInt(a.substr(0,2),16),n=2;a.length-n;n+=2)i=parseInt(a.substr(n,2),16)^r,e+=String.fromCharCode(i);e=document.createTextNode(e),c.parentNode.replaceChild(e,c)}}}catch(u){}}();/* ]]&gt; */&lt;/script&gt; \nFormat settings, CABAC : Yes \nFormat settings, ReFrames : 10 frames \nDuration : 20mn 59s \nBit rate : 476 Kbps \nMaximum bit rate : 3 320 Kbps \nWidth : 1 280 pixels \nHeight : 720 pixels \nDisplay aspect ratio : 16:9 \nFrame rate mode : Variable \nFrame rate : 23.976 fps \nStream size : 71.4 MiB (86%) \nTitle : Hunter X Hunter - 133 [Hi10 720p] [ENG SUBBED] [GWC] \nWriting library : x264 core \n\nAudio \nFormat : AAC \nFormat profile : HE-AAC / LC \nDuration : 20mn 59s \nBit rate mode : Variable \nChannel(s) : 2 channels \nSampling rate : 44.1 KHz / 22.05 KHz \nStream size : 10.8 MiB (13%) \nLanguage : English \n\nText \nFormat : Timed Text \nTitle : [GWC] \nLanguage : English ","torrent":{"xt":"urn:btih:156b27a923e5d1ae69bf60fe97d9376bd3649522","amp;dn":"Hunter+X+Hunter+-+133+%5BHi10+720p%5D+%5BENG+SUBBED%5D+%5BGWC%5D.mp4","amp;tr":["udp%3A%2F%2Ftracker.openbittorrent.com%3A80","udp%3A%2F%2Fopen.demonii.com%3A1337","udp%3A%2F%2Ftracker.coppersurfer.tk%3A6969","udp%3A%2F%2Fexodus.desync.com%3A6969"],"infoHash":"156b27a923e5d1ae69bf60fe97d9376bd3649522","infoHashBuffer":{"type":"Buffer","data":[21,107,39,169,35,229,209,174,105,191,96,254,151,217,55,107,211,100,149,34]},"announce":[],"urlList":[]}}